<?xml version="1.0" standalone="no"?>
<!DOCTYPE svg PUBLIC "-//W3C//DTD SVG 20010904//EN"
 "http://www.w3.org/TR/2001/REC-SVG-20010904/DTD/svg10.dtd">
<svg version="1.0" xmlns="http://www.w3.org/2000/svg"
 width="512.000000pt" height="512.000000pt" viewBox="0 0 512.000000 512.000000"
 preserveAspectRatio="xMidYMid meet">

<g transform="translate(0.000000,512.000000) scale(0.100000,-0.100000)"
fill="#000000" stroke="none">
<path d="M1127 2790 c3 -1163 7 -2117 9 -2118 1 -2 201 179 444 402 243 224
445 404 449 402 3 -2 144 -286 311 -630 167 -344 308 -626 312 -626 8 0 659
288 665 294 2 2 -121 279 -273 615 -151 337 -274 614 -272 616 7 6 503 15 846
15 214 0 372 4 370 9 -2 6 -2077 2277 -2819 3085 l-47 51 5 -2115z m1287 356
c575 -626 1046 -1143 1046 -1147 0 -5 -35 -9 -77 -9 -112 0 -957 -30 -961 -34
-2 -2 64 -145 146 -317 82 -173 220 -462 306 -642 86 -180 156 -331 156 -335
0 -15 -288 -157 -298 -147 -6 6 -146 304 -313 663 -167 359 -307 651 -311 650
-4 -2 -172 -146 -374 -321 -201 -176 -367 -317 -368 -315 -8 9 -15 3111 -7
3102 5 -5 480 -522 1055 -1148z"/>
</g>
</svg>
